<svg width="20" height="18" viewBox="0 0 20 18" fill="none" xmlns="http://www.w3.org/2000/svg">
<path d="M10.4 14H9.6C9.26863 14 9 13.7314 9 13.4V11.6C9 11.2686 9.26863 11 9.6 11H10.4C10.7314 11 11 11.2686 11 11.6V13.4C11 13.7314 10.7314 14 10.4 14Z" fill="#648079"/>
<path d="M1 6.5L10 1L19 6.5M17 10V16.4C17 16.7314 16.7314 17 16.4 17H3.6C3.26863 17 3 16.7314 3 16.4V10M9.6 14H10.4C10.7314 14 11 13.7314 11 13.4V11.6C11 11.2686 10.7314 11 10.4 11H9.6C9.26863 11 9 11.2686 9 11.6V13.4C9 13.7314 9.26863 14 9.6 14Z" stroke="#648079" stroke-width="1.5" stroke-linecap="round" stroke-linejoin="round"/>
</svg>
