<svg width="766" height="273" viewBox="0 0 766 273" fill="none" xmlns="http://www.w3.org/2000/svg">
<path d="M766 272C700.183 208.943 527.328 120.664 362.449 272H766Z" fill="#BDDFD2" fill-opacity="0.4"/>
<g opacity="0.6">
<path d="M558.65 82.777C558.65 84.3035 558.48 85.9997 557.971 87.3565H524.571C524.232 85.83 523.893 84.3035 523.893 82.777C523.893 73.2787 531.692 65.4766 541.186 65.4766C548.307 65.4766 554.411 69.8865 557.124 75.9925C558.141 78.1975 558.65 80.4024 558.65 82.777Z" fill="#A5D6F7"/>
<path d="M575.773 85.3204C575.773 85.9989 575.773 86.8469 575.604 87.5254H552.885C552.715 86.8469 552.715 86.1685 552.715 85.3204C552.715 81.589 554.58 78.1967 557.293 75.9918C559.158 74.6349 561.532 73.6172 564.244 73.6172C570.518 73.7868 575.773 78.8752 575.773 85.3204Z" fill="#A5D6F7"/>
</g>
<g opacity="0.4">
<path d="M105.802 91.4483C105.802 92.8076 105.953 94.318 106.406 95.5262H136.147C136.449 94.1669 136.751 92.8076 136.751 91.4483C136.751 82.9905 129.806 76.043 121.352 76.043C115.011 76.043 109.576 79.9698 107.16 85.407C106.255 87.3704 105.802 89.3339 105.802 91.4483Z" fill="#A5D6F7"/>
<path d="M90.5533 93.7142C90.5533 94.3184 90.5533 95.0735 90.7043 95.6777H110.935C111.086 95.0735 111.086 94.4694 111.086 93.7142C111.086 90.3915 109.425 87.3709 107.009 85.4074C105.349 84.1992 103.235 83.293 100.819 83.293C95.2335 83.444 90.5533 87.975 90.5533 93.7142Z" fill="#A5D6F7"/>
</g>
<g opacity="0.5">
<path d="M402.155 16.3429C402.155 17.7022 402.306 19.2125 402.759 20.4208H432.5C432.802 19.0615 433.104 17.7022 433.104 16.3429C433.104 7.88502 426.159 0.9375 417.705 0.9375C411.364 0.9375 405.929 4.86436 403.514 10.3015C402.608 12.265 402.155 14.2284 402.155 16.3429Z" fill="#A5D6F7"/>
<path d="M386.906 18.6088C386.906 19.2129 386.906 19.9681 387.057 20.5722H407.288C407.439 19.9681 407.439 19.3639 407.439 18.6088C407.439 15.2861 405.778 12.2654 403.362 10.302C401.702 9.0937 399.588 8.1875 397.173 8.1875C391.587 8.33853 386.906 12.8695 386.906 18.6088Z" fill="#A5D6F7"/>
</g>
<path d="M354.975 164.797H282.38V92.3792L318.678 22.9805L354.975 92.3792V164.797Z" fill="#FFA41D"/>
<path d="M282.673 91.8555H191.645V164.676H282.673V91.8555Z" fill="#D06507"/>
<rect x="-0.5" y="0.5" width="20.7401" height="16.6639" transform="matrix(-1 0 0 1 265.656 115.748)" stroke="#FFC28C"/>
<rect x="-0.5" y="0.5" width="20.7401" height="16.6639" transform="matrix(-1 0 0 1 228.29 115.748)" stroke="#FFC28C"/>
<path d="M330.008 115.523H306.947V164.677H330.008V115.523Z" fill="#FEFDF9"/>
<path opacity="0.4" d="M282.673 99.1378H279.534H191.645V91.8555H282.673V99.1378Z" fill="#F38728"/>
<path d="M318.478 22.6777L283.211 92.4638L191.645 91.857L234.321 22.6777H318.478Z" fill="#323F6A"/>
<path d="M498.163 188.508C497.774 187.861 496.837 187.861 496.448 188.508L488.654 201.488C488.254 202.155 488.734 203.003 489.512 203.003H505.1C505.877 203.003 506.357 202.155 505.957 201.488L498.163 188.508Z" fill="#648079"/>
<path d="M498.171 197.922C497.787 197.255 496.824 197.255 496.439 197.922L487.875 212.756C487.49 213.422 487.971 214.256 488.741 214.256H505.87C506.639 214.256 507.121 213.422 506.736 212.756L498.171 197.922Z" fill="#648079"/>
<rect width="3.3969" height="13.5876" rx="1" transform="matrix(-1 0 0 1 499.004 212.555)" fill="#648079"/>
<path d="M570.678 271.66C477.604 183.231 233.163 59.4295 -6.10352e-05 271.66H570.678Z" fill="white"/>
<path opacity="0.5" d="M546.922 271.576C469.813 206.811 279.565 114.593 92.0558 222.746" stroke="#252E4B"/>
<path d="M335.273 248.537H432.062V227.12L383.849 152.094L335.273 227.12V248.537Z" fill="#BDDFD2"/>
<path opacity="0.4" d="M382.49 154.132L383.833 156.209L432.085 229.881L432.085 227.503L383.849 152.094L382.49 154.132Z" fill="#445C56"/>
<path opacity="0.4" d="M380.792 152.094L378.074 155.151L332.556 227.015L335.421 227.502L383.657 152.094L380.792 152.094Z" fill="#445C56"/>
<path d="M432.062 227.395H476.308V248.964H432.062V227.395Z" fill="#648079"/>
<path d="M458.921 192.514H467.752V220.368H458.921V192.514Z" fill="#323F6A"/>
<path d="M373.988 227.395H392.793V248.964H373.988V227.395Z" fill="#FEFDF9"/>
<path opacity="0.4" d="M432.062 229.607H433.587H476.308V227.395H432.062V229.607Z" fill="#132521"/>
<path d="M383.849 152.092L432.062 227.395H476.584L422.106 152.179L383.849 152.092Z" fill="#323F6A"/>
<path d="M166.626 140.953C166.237 140.306 165.3 140.306 164.911 140.953L157.117 153.934C156.717 154.6 157.197 155.448 157.974 155.448H173.562C174.34 155.448 174.82 154.6 174.42 153.934L166.626 140.953Z" fill="#59617E"/>
<path d="M166.634 150.367C166.249 149.701 165.287 149.701 164.902 150.367L156.338 165.201C155.953 165.868 156.434 166.701 157.204 166.701H174.333C175.102 166.701 175.584 165.868 175.199 165.201L166.634 150.367Z" fill="#59617E"/>
<rect width="3.3969" height="13.5876" rx="1" transform="matrix(-1 0 0 1 167.467 165.002)" fill="#59617E"/>
<rect width="49.4458" height="48.0108" transform="matrix(-1 0 0 1 186.908 223.65)" fill="#E86022"/>
<path d="M191.925 217.201L98.0492 193.195H44.6621L137.463 217.201L44.6621 194.628V200.719L137.463 223.65H191.925V217.201Z" fill="#0E214B"/>
<path d="M137.463 223.65L50.0368 200.361V271.661H137.463V223.65Z" fill="#FFBD9B"/>
<path d="M126.025 271.66V236.334H101.227V271.66H126.025Z" stroke="white"/>
<path d="M107.002 255.016V251.619H104.964V255.016H107.002Z" stroke="white"/>
<circle cx="7.59576" cy="7.59576" r="7.09576" transform="matrix(-1 0 0 1 391.009 196.021)" stroke="#315C4C"/>
<g filter="url(#filter0_d_181_3713)">
<path fill-rule="evenodd" clip-rule="evenodd" d="M180.721 35.5023C182.753 32.2064 183.925 28.3243 183.925 24.1686C183.925 12.2218 174.24 2.53711 162.293 2.53711C150.345 2.53711 140.66 12.2218 140.66 24.1686C140.66 36.1153 150.345 45.8 162.293 45.8C167.541 45.8 172.354 43.9307 176.1 40.8216L179.204 42.2279C180.754 42.9299 182.417 41.4991 181.954 39.8619L180.721 35.5023Z" fill="white"/>
</g>
<g clip-path="url(#clip0_181_3713)">
<path d="M167.043 17.5397C167.441 17.3098 167.914 17.2474 168.359 17.3665C168.803 17.4855 169.182 17.7762 169.412 18.1745L171.146 21.1783C171.376 21.5766 171.438 22.05 171.319 22.4942C171.2 22.9385 170.91 23.3173 170.511 23.5473L169.714 24.0077C170.369 25.5652 170.433 27.3082 169.894 28.9097C169.356 30.5112 168.251 31.861 166.788 32.7059L165.921 31.204C167.116 30.5141 167.987 29.3777 168.345 28.0449C168.702 26.7121 168.515 25.292 167.825 24.097L165.224 19.5913C164.534 18.3964 163.397 17.5244 162.064 17.1673C160.732 16.8102 159.311 16.9971 158.117 17.687C156.922 18.3769 156.05 19.5133 155.692 20.8461C155.335 22.179 155.522 23.5991 156.212 24.794L159.247 30.0506L156.994 31.3513C156.596 31.5813 156.123 31.6436 155.678 31.5245C155.234 31.4055 154.855 31.1149 154.625 30.7165L152.891 27.7128C152.661 27.3144 152.599 26.8411 152.718 26.3968C152.837 25.9525 153.127 25.5737 153.526 25.3438L154.323 24.8833C153.668 23.3259 153.604 21.583 154.143 19.9817C154.682 18.3804 155.787 17.0307 157.25 16.186C158.713 15.3412 160.434 15.0594 162.09 15.3934C163.747 15.7274 165.224 16.6543 166.245 18.0002L167.043 17.5397ZM160.476 29.1261L160.536 27.3929C161.511 27.4281 162.475 27.1873 163.319 26.6983C164.165 26.2121 164.855 25.4971 165.312 24.6355L166.844 25.4495C166.234 26.5983 165.313 27.5518 164.186 28.2002C163.061 28.8521 161.775 29.173 160.476 29.1261Z" fill="#59617E"/>
</g>
<g filter="url(#filter1_d_181_3713)">
<path fill-rule="evenodd" clip-rule="evenodd" d="M448.003 128.681C458.361 131.203 469.748 128.419 477.837 120.33C490.171 107.997 490.171 88.0005 477.837 75.6672C465.504 63.334 445.507 63.334 433.173 75.6672C420.839 88.0005 420.839 107.997 433.173 120.33C434.862 122.019 436.695 123.477 438.632 124.703L439.311 132.719C439.455 134.415 441.515 135.168 442.718 133.965L448.003 128.681Z" fill="white"/>
</g>
<rect width="36.7795" height="36.7795" transform="matrix(0.965943 0.258814 -0.258824 0.965908 442.502 76.043)" fill="white"/>
<path d="M450.992 91.1365C452.885 84.0716 463.987 87.0464 462.094 94.1112C460.742 99.1574 455.966 96.7959 454.343 102.851" stroke="#252E4B" stroke-width="4" stroke-linecap="round" stroke-linejoin="round"/>
<path d="M452.725 108.943L452.745 108.93" stroke="#252E4B" stroke-width="4" stroke-linecap="round" stroke-linejoin="round"/>
<defs>
<filter id="filter0_d_181_3713" x="137.66" y="0.537109" width="49.2644" height="49.2637" filterUnits="userSpaceOnUse" color-interpolation-filters="sRGB">
<feFlood flood-opacity="0" result="BackgroundImageFix"/>
<feColorMatrix in="SourceAlpha" type="matrix" values="0 0 0 0 0 0 0 0 0 0 0 0 0 0 0 0 0 0 127 0" result="hardAlpha"/>
<feOffset dy="1"/>
<feGaussianBlur stdDeviation="1.5"/>
<feComposite in2="hardAlpha" operator="out"/>
<feColorMatrix type="matrix" values="0 0 0 0 0 0 0 0 0 0 0 0 0 0 0 0 0 0 0.13 0"/>
<feBlend mode="normal" in2="BackgroundImageFix" result="effect1_dropShadow_181_3713"/>
<feBlend mode="normal" in="SourceGraphic" in2="effect1_dropShadow_181_3713" result="shape"/>
</filter>
<filter id="filter1_d_181_3713" x="420.923" y="64.418" width="69.1646" height="74.1348" filterUnits="userSpaceOnUse" color-interpolation-filters="sRGB">
<feFlood flood-opacity="0" result="BackgroundImageFix"/>
<feColorMatrix in="SourceAlpha" type="matrix" values="0 0 0 0 0 0 0 0 0 0 0 0 0 0 0 0 0 0 127 0" result="hardAlpha"/>
<feOffset dy="1"/>
<feGaussianBlur stdDeviation="1.5"/>
<feComposite in2="hardAlpha" operator="out"/>
<feColorMatrix type="matrix" values="0 0 0 0 0 0 0 0 0 0 0 0 0 0 0 0 0 0 0.13 0"/>
<feBlend mode="normal" in2="BackgroundImageFix" result="effect1_dropShadow_181_3713"/>
<feBlend mode="normal" in="SourceGraphic" in2="effect1_dropShadow_181_3713" result="shape"/>
</filter>
<clipPath id="clip0_181_3713">
<rect width="20.8107" height="20.8107" fill="white" transform="matrix(-1 0 0 1 172.424 14.0391)"/>
</clipPath>
</defs>
</svg>
