<svg width="905" height="665" viewBox="0 0 905 665" fill="none" xmlns="http://www.w3.org/2000/svg">
<g filter="url(#filter0_d_1419_2531)">
<rect x="155" y="40" width="706" height="562" rx="12" fill="white"/>
</g>
<rect opacity="0.8" x="425" y="143" width="165" height="6" rx="3" fill="#F1F1F1"/>
<rect opacity="0.3" x="451" y="113" width="113" height="14" rx="2" fill="#808490"/>
<rect x="175" y="56" width="14" height="14" rx="7" fill="#EF6C62"/>
<rect x="197" y="56" width="14" height="14" rx="7" fill="#F1BF50"/>
<rect x="219" y="56" width="14" height="14" rx="7" fill="#5FC549"/>
<g opacity="0.8">
<rect x="392" y="191" width="247" height="315" rx="10" fill="white"/>
<rect x="392.5" y="191.5" width="246" height="314" rx="9.5" stroke="#808490" stroke-opacity="0.3"/>
<rect x="416" y="276.473" width="28" height="14.4413" rx="6" fill="#F3A24E" fill-opacity="0.4"/>
<rect x="415.5" y="439.709" width="199.428" height="40.5186" rx="5.5" fill="white" stroke="#648079"/>
<rect opacity="0.4" x="473.5" y="456.858" width="84" height="6.22063" rx="3.11032" fill="#648079" stroke="#648079"/>
<rect x="416.118" y="343.536" width="150.529" height="7.22063" rx="3.61032" fill="#F1F1F1"/>
<rect x="416.118" y="397.69" width="115.599" height="7.22063" rx="3.61032" fill="#F1F1F1"/>
<rect x="392" y="315.556" width="247" height="0.902579" rx="0.451289" fill="#F1F1F1"/>
<rect x="416.118" y="370.613" width="88.1549" height="7.22063" rx="3.61032" fill="#F1F1F1"/>
<path d="M426.214 245.087C427.344 244.937 428.198 244.559 428.774 243.951C429.36 243.332 429.654 242.527 429.654 241.535C429.654 241.129 429.579 240.777 429.43 240.479C429.291 240.169 429.088 239.897 428.822 239.663C428.566 239.428 428.262 239.225 427.91 239.055C427.558 238.884 427.174 238.724 426.758 238.575L426.214 245.087ZM425.19 228.175C424.592 228.249 424.086 228.377 423.67 228.559C423.254 228.729 422.912 228.943 422.646 229.199C422.379 229.455 422.182 229.743 422.054 230.063C421.936 230.383 421.878 230.719 421.878 231.071C421.878 231.476 421.947 231.833 422.086 232.143C422.235 232.441 422.432 232.713 422.678 232.959C422.934 233.193 423.232 233.407 423.574 233.599C423.915 233.78 424.288 233.951 424.694 234.111L425.19 228.175ZM427.062 234.879C427.83 235.113 428.592 235.375 429.35 235.663C430.107 235.94 430.784 236.303 431.382 236.751C431.99 237.199 432.48 237.759 432.854 238.431C433.227 239.092 433.414 239.924 433.414 240.927C433.414 241.919 433.248 242.852 432.918 243.727C432.587 244.591 432.102 245.359 431.462 246.031C430.822 246.692 430.038 247.236 429.11 247.663C428.182 248.079 427.12 248.324 425.926 248.399L425.734 250.751C425.723 250.996 425.616 251.22 425.414 251.423C425.222 251.636 424.976 251.743 424.678 251.743H423.222L423.51 248.319C422.262 248.148 421.088 247.807 419.99 247.295C418.891 246.783 417.958 246.148 417.19 245.391L418.406 243.583C418.512 243.423 418.651 243.295 418.822 243.199C419.003 243.092 419.195 243.039 419.398 243.039C419.632 243.039 419.883 243.124 420.15 243.295C420.416 243.455 420.72 243.647 421.062 243.871C421.403 244.084 421.792 244.303 422.23 244.527C422.667 244.751 423.184 244.916 423.782 245.023L424.374 237.871C423.616 237.657 422.864 237.407 422.118 237.119C421.382 236.831 420.715 236.452 420.118 235.983C419.531 235.503 419.056 234.9 418.694 234.175C418.331 233.449 418.15 232.543 418.15 231.455C418.15 230.644 418.31 229.855 418.63 229.087C418.95 228.308 419.419 227.615 420.038 227.007C420.667 226.399 421.435 225.897 422.342 225.503C423.248 225.108 424.288 224.884 425.462 224.831L425.638 222.815C425.659 222.559 425.766 222.329 425.958 222.127C426.15 221.924 426.4 221.823 426.71 221.823H428.166L427.91 224.959C429.04 225.14 430.016 225.465 430.838 225.935C431.659 226.393 432.368 226.911 432.966 227.487L432.006 228.943C431.867 229.156 431.723 229.316 431.574 229.423C431.424 229.529 431.243 229.583 431.03 229.583C430.87 229.583 430.678 229.535 430.454 229.439C430.23 229.332 429.979 229.209 429.702 229.071C429.424 228.921 429.11 228.772 428.758 228.623C428.416 228.473 428.038 228.351 427.622 228.255L427.062 234.879ZM446.712 239.455V231.887C446.712 231.172 446.76 230.383 446.856 229.519L439.672 239.455H446.712ZM453.064 239.455V241.743C453.064 241.956 452.995 242.143 452.856 242.303C452.718 242.452 452.52 242.527 452.264 242.527H450.152V248.175H446.712V242.527H436.952C436.686 242.527 436.451 242.447 436.248 242.287C436.046 242.116 435.918 241.908 435.864 241.663L435.448 239.663L446.408 225.023H450.152V239.455H453.064ZM459.803 231.983C459.803 233.273 460.133 234.26 460.795 234.943C461.467 235.615 462.416 235.951 463.643 235.951C464.283 235.951 464.853 235.849 465.355 235.647C465.856 235.444 466.277 235.167 466.619 234.815C466.96 234.463 467.216 234.047 467.387 233.567C467.568 233.087 467.659 232.569 467.659 232.015C467.659 231.385 467.563 230.825 467.371 230.335C467.179 229.833 466.907 229.412 466.555 229.071C466.203 228.729 465.781 228.468 465.291 228.287C464.811 228.105 464.283 228.015 463.707 228.015C463.109 228.015 462.571 228.116 462.091 228.319C461.611 228.511 461.2 228.783 460.859 229.135C460.517 229.487 460.256 229.908 460.075 230.399C459.893 230.879 459.803 231.407 459.803 231.983ZM465.051 239.199C465.232 238.975 465.403 238.756 465.563 238.543C465.723 238.329 465.877 238.116 466.027 237.903C465.493 238.244 464.907 238.505 464.267 238.687C463.627 238.857 462.955 238.943 462.251 238.943C461.451 238.943 460.667 238.804 459.899 238.527C459.131 238.249 458.448 237.833 457.851 237.279C457.253 236.713 456.768 236.02 456.395 235.199C456.032 234.367 455.851 233.396 455.851 232.287C455.851 231.252 456.043 230.281 456.427 229.375C456.811 228.468 457.349 227.673 458.043 226.991C458.736 226.308 459.568 225.769 460.539 225.375C461.509 224.98 462.581 224.783 463.755 224.783C464.939 224.783 466 224.969 466.939 225.343C467.888 225.716 468.693 226.239 469.355 226.911C470.027 227.583 470.539 228.388 470.891 229.327C471.253 230.265 471.435 231.295 471.435 232.415C471.435 233.129 471.371 233.807 471.243 234.447C471.125 235.087 470.955 235.705 470.731 236.303C470.507 236.889 470.235 237.465 469.915 238.031C469.595 238.596 469.237 239.156 468.843 239.711L463.547 247.263C463.365 247.519 463.093 247.737 462.731 247.919C462.368 248.089 461.957 248.175 461.499 248.175H457.867L465.051 239.199Z" fill="#252E4B"/>
<path d="M483.245 248.364C483.167 248.574 483.044 248.73 482.876 248.832C482.714 248.934 482.546 248.985 482.372 248.985H481.697L487.106 235.512C487.178 235.32 487.286 235.173 487.43 235.071C487.58 234.969 487.751 234.918 487.943 234.918H488.627L483.245 248.364ZM494.794 246.987C495.226 246.987 495.616 246.918 495.964 246.78C496.318 246.642 496.618 246.45 496.864 246.204C497.116 245.958 497.308 245.667 497.44 245.331C497.578 244.995 497.647 244.629 497.647 244.233C497.647 243.813 497.581 243.435 497.449 243.099C497.317 242.757 497.128 242.469 496.882 242.235C496.642 241.995 496.354 241.812 496.018 241.686C495.682 241.56 495.313 241.497 494.911 241.497C494.479 241.497 494.089 241.572 493.741 241.722C493.393 241.866 493.096 242.064 492.85 242.316C492.61 242.562 492.424 242.85 492.292 243.18C492.166 243.504 492.103 243.843 492.103 244.197C492.103 244.611 492.163 244.989 492.283 245.331C492.403 245.673 492.577 245.967 492.805 246.213C493.039 246.459 493.321 246.651 493.651 246.789C493.987 246.921 494.368 246.987 494.794 246.987ZM493.858 240.111C493.744 240.255 493.633 240.396 493.525 240.534C493.423 240.666 493.324 240.798 493.228 240.93C493.534 240.72 493.87 240.558 494.236 240.444C494.602 240.33 495.001 240.273 495.433 240.273C495.955 240.273 496.447 240.36 496.909 240.534C497.371 240.702 497.773 240.951 498.115 241.281C498.463 241.605 498.739 242.007 498.943 242.487C499.147 242.961 499.249 243.504 499.249 244.116C499.249 244.71 499.141 245.262 498.925 245.772C498.709 246.282 498.406 246.726 498.016 247.104C497.632 247.482 497.167 247.779 496.621 247.995C496.081 248.211 495.484 248.319 494.83 248.319C494.182 248.319 493.594 248.217 493.066 248.013C492.538 247.803 492.088 247.509 491.716 247.131C491.35 246.747 491.065 246.285 490.861 245.745C490.663 245.199 490.564 244.59 490.564 243.918C490.564 243.354 490.687 242.754 490.933 242.118C491.185 241.476 491.584 240.792 492.13 240.066L495.406 235.665C495.49 235.557 495.604 235.467 495.748 235.395C495.898 235.317 496.069 235.278 496.261 235.278H497.683L493.858 240.111ZM520.425 235.278V248.175H518.895V238.698C518.895 238.572 518.898 238.437 518.904 238.293C518.916 238.149 518.928 238.002 518.94 237.852L514.512 245.916C514.374 246.186 514.164 246.321 513.882 246.321H513.63C513.348 246.321 513.138 246.186 513 245.916L508.482 237.816C508.518 238.134 508.536 238.428 508.536 238.698V248.175H507.006V235.278H508.293C508.449 235.278 508.569 235.293 508.653 235.323C508.737 235.353 508.818 235.437 508.896 235.575L513.351 243.513C513.423 243.657 513.492 243.807 513.558 243.963C513.63 244.119 513.696 244.278 513.756 244.44C513.816 244.278 513.879 244.119 513.945 243.963C514.011 243.801 514.083 243.648 514.161 243.504L518.535 235.575C518.607 235.437 518.685 235.353 518.769 235.323C518.859 235.293 518.982 235.278 519.138 235.278H520.425ZM527.267 238.914C527.933 238.914 528.533 239.025 529.067 239.247C529.601 239.469 530.057 239.784 530.435 240.192C530.813 240.6 531.101 241.095 531.299 241.677C531.503 242.253 531.605 242.898 531.605 243.612C531.605 244.332 531.503 244.98 531.299 245.556C531.101 246.132 530.813 246.624 530.435 247.032C530.057 247.44 529.601 247.755 529.067 247.977C528.533 248.193 527.933 248.301 527.267 248.301C526.595 248.301 525.989 248.193 525.449 247.977C524.915 247.755 524.459 247.44 524.081 247.032C523.703 246.624 523.412 246.132 523.208 245.556C523.01 244.98 522.911 244.332 522.911 243.612C522.911 242.898 523.01 242.253 523.208 241.677C523.412 241.095 523.703 240.6 524.081 240.192C524.459 239.784 524.915 239.469 525.449 239.247C525.989 239.025 526.595 238.914 527.267 238.914ZM527.267 247.05C528.167 247.05 528.839 246.75 529.283 246.15C529.727 245.544 529.949 244.701 529.949 243.621C529.949 242.535 529.727 241.689 529.283 241.083C528.839 240.477 528.167 240.174 527.267 240.174C526.811 240.174 526.412 240.252 526.07 240.408C525.734 240.564 525.452 240.789 525.224 241.083C525.002 241.377 524.834 241.74 524.72 242.172C524.612 242.598 524.558 243.081 524.558 243.621C524.558 244.701 524.78 245.544 525.224 246.15C525.674 246.75 526.355 247.05 527.267 247.05ZM535.509 240.381C535.707 240.159 535.917 239.958 536.139 239.778C536.361 239.598 536.595 239.445 536.841 239.319C537.093 239.187 537.357 239.088 537.633 239.022C537.915 238.95 538.218 238.914 538.542 238.914C539.04 238.914 539.478 238.998 539.856 239.166C540.24 239.328 540.558 239.562 540.81 239.868C541.068 240.168 541.263 240.531 541.395 240.957C541.527 241.383 541.593 241.854 541.593 242.37V248.175H539.982V242.37C539.982 241.68 539.823 241.146 539.505 240.768C539.193 240.384 538.716 240.192 538.074 240.192C537.6 240.192 537.156 240.306 536.742 240.534C536.334 240.762 535.956 241.071 535.608 241.461V248.175H533.997V239.058H534.96C535.188 239.058 535.329 239.169 535.383 239.391L535.509 240.381ZM547.07 248.319C546.35 248.319 545.795 248.118 545.405 247.716C545.021 247.314 544.829 246.735 544.829 245.979V240.399H543.731C543.635 240.399 543.554 240.372 543.488 240.318C543.422 240.258 543.389 240.168 543.389 240.048V239.409L544.883 239.22L545.252 236.403C545.27 236.313 545.309 236.241 545.369 236.187C545.435 236.127 545.519 236.097 545.621 236.097H546.431V239.238H549.068V240.399H546.431V245.871C546.431 246.255 546.524 246.54 546.71 246.726C546.896 246.912 547.136 247.005 547.43 247.005C547.598 247.005 547.742 246.984 547.862 246.942C547.988 246.894 548.096 246.843 548.186 246.789C548.276 246.735 548.351 246.687 548.411 246.645C548.477 246.597 548.534 246.573 548.582 246.573C548.666 246.573 548.741 246.624 548.807 246.726L549.275 247.491C548.999 247.749 548.666 247.953 548.276 248.103C547.886 248.247 547.484 248.319 547.07 248.319ZM552.693 240.273C553.083 239.859 553.515 239.529 553.989 239.283C554.463 239.037 555.009 238.914 555.627 238.914C556.125 238.914 556.563 238.998 556.941 239.166C557.325 239.328 557.643 239.562 557.895 239.868C558.153 240.168 558.348 240.531 558.48 240.957C558.612 241.383 558.678 241.854 558.678 242.37V248.175H557.067V242.37C557.067 241.68 556.908 241.146 556.59 240.768C556.278 240.384 555.801 240.192 555.159 240.192C554.685 240.192 554.241 240.306 553.827 240.534C553.419 240.762 553.041 241.071 552.693 241.461V248.175H551.082V234.918H552.693V240.273ZM566.789 240.561C566.717 240.693 566.606 240.759 566.456 240.759C566.366 240.759 566.264 240.726 566.15 240.66C566.036 240.594 565.895 240.522 565.727 240.444C565.565 240.36 565.37 240.285 565.142 240.219C564.914 240.147 564.644 240.111 564.332 240.111C564.062 240.111 563.819 240.147 563.603 240.219C563.387 240.285 563.201 240.378 563.045 240.498C562.895 240.618 562.778 240.759 562.694 240.921C562.616 241.077 562.577 241.248 562.577 241.434C562.577 241.668 562.643 241.863 562.775 242.019C562.913 242.175 563.093 242.31 563.315 242.424C563.537 242.538 563.789 242.64 564.071 242.73C564.353 242.814 564.641 242.907 564.935 243.009C565.235 243.105 565.526 243.213 565.808 243.333C566.09 243.453 566.342 243.603 566.564 243.783C566.786 243.963 566.963 244.185 567.095 244.449C567.233 244.707 567.302 245.019 567.302 245.385C567.302 245.805 567.227 246.195 567.077 246.555C566.927 246.909 566.705 247.218 566.411 247.482C566.117 247.74 565.757 247.944 565.331 248.094C564.905 248.244 564.413 248.319 563.855 248.319C563.219 248.319 562.643 248.217 562.127 248.013C561.611 247.803 561.173 247.536 560.813 247.212L561.191 246.6C561.239 246.522 561.296 246.462 561.362 246.42C561.428 246.378 561.512 246.357 561.614 246.357C561.722 246.357 561.836 246.399 561.956 246.483C562.076 246.567 562.22 246.66 562.388 246.762C562.562 246.864 562.772 246.957 563.018 247.041C563.264 247.125 563.57 247.167 563.936 247.167C564.248 247.167 564.521 247.128 564.755 247.05C564.989 246.966 565.184 246.855 565.34 246.717C565.496 246.579 565.61 246.42 565.682 246.24C565.76 246.06 565.799 245.868 565.799 245.664C565.799 245.412 565.73 245.205 565.592 245.043C565.46 244.875 565.283 244.734 565.061 244.62C564.839 244.5 564.584 244.398 564.296 244.314C564.014 244.224 563.723 244.131 563.423 244.035C563.129 243.939 562.838 243.831 562.55 243.711C562.268 243.585 562.016 243.429 561.794 243.243C561.572 243.057 561.392 242.829 561.254 242.559C561.122 242.283 561.056 241.95 561.056 241.56C561.056 241.212 561.128 240.879 561.272 240.561C561.416 240.237 561.626 239.955 561.902 239.715C562.178 239.469 562.517 239.274 562.919 239.13C563.321 238.986 563.78 238.914 564.296 238.914C564.896 238.914 565.433 239.01 565.907 239.202C566.387 239.388 566.801 239.646 567.149 239.976L566.789 240.561Z" fill="#808490"/>
</g>
<g clip-path="url(#clip0_1419_2531)">
<g opacity="0.4">
<rect x="671" y="191" width="247" height="315" rx="10" fill="white"/>
<rect x="671.5" y="191.5" width="246" height="314" rx="9.5" stroke="#808490" stroke-opacity="0.3"/>
<rect x="695.118" y="276.473" width="58.2155" height="14.4413" rx="6" fill="#F3A24E" fill-opacity="0.4"/>
<rect x="694.286" y="439.209" width="200.428" height="41.5186" rx="6" fill="white"/>
<rect x="694.786" y="439.709" width="199.428" height="40.5186" rx="5.5" stroke="#808490" stroke-opacity="0.3"/>
<rect x="695.118" y="343.536" width="150.529" height="7.22063" rx="3.61032" fill="#F1F1F1"/>
<rect x="695.118" y="397.69" width="115.599" height="7.22063" rx="3.61032" fill="#F1F1F1"/>
<rect x="671" y="315.556" width="247" height="0.902579" rx="0.451289" fill="#F1F1F1"/>
<rect x="695.118" y="370.613" width="88.1549" height="7.22063" rx="3.61032" fill="#F1F1F1"/>
<path d="M705.214 245.087C706.344 244.937 707.198 244.559 707.774 243.951C708.36 243.332 708.654 242.527 708.654 241.535C708.654 241.129 708.579 240.777 708.43 240.479C708.291 240.169 708.088 239.897 707.822 239.663C707.566 239.428 707.262 239.225 706.91 239.055C706.558 238.884 706.174 238.724 705.758 238.575L705.214 245.087ZM704.19 228.175C703.592 228.249 703.086 228.377 702.67 228.559C702.254 228.729 701.912 228.943 701.646 229.199C701.379 229.455 701.182 229.743 701.054 230.063C700.936 230.383 700.878 230.719 700.878 231.071C700.878 231.476 700.947 231.833 701.086 232.143C701.235 232.441 701.432 232.713 701.678 232.959C701.934 233.193 702.232 233.407 702.574 233.599C702.915 233.78 703.288 233.951 703.694 234.111L704.19 228.175ZM706.062 234.879C706.83 235.113 707.592 235.375 708.35 235.663C709.107 235.94 709.784 236.303 710.382 236.751C710.99 237.199 711.48 237.759 711.854 238.431C712.227 239.092 712.414 239.924 712.414 240.927C712.414 241.919 712.248 242.852 711.918 243.727C711.587 244.591 711.102 245.359 710.462 246.031C709.822 246.692 709.038 247.236 708.11 247.663C707.182 248.079 706.12 248.324 704.926 248.399L704.734 250.751C704.723 250.996 704.616 251.22 704.414 251.423C704.222 251.636 703.976 251.743 703.678 251.743H702.222L702.51 248.319C701.262 248.148 700.088 247.807 698.99 247.295C697.891 246.783 696.958 246.148 696.19 245.391L697.406 243.583C697.512 243.423 697.651 243.295 697.822 243.199C698.003 243.092 698.195 243.039 698.398 243.039C698.632 243.039 698.883 243.124 699.15 243.295C699.416 243.455 699.72 243.647 700.062 243.871C700.403 244.084 700.792 244.303 701.23 244.527C701.667 244.751 702.184 244.916 702.782 245.023L703.374 237.871C702.616 237.657 701.864 237.407 701.118 237.119C700.382 236.831 699.715 236.452 699.118 235.983C698.531 235.503 698.056 234.9 697.694 234.175C697.331 233.449 697.15 232.543 697.15 231.455C697.15 230.644 697.31 229.855 697.63 229.087C697.95 228.308 698.419 227.615 699.038 227.007C699.667 226.399 700.435 225.897 701.342 225.503C702.248 225.108 703.288 224.884 704.462 224.831L704.638 222.815C704.659 222.559 704.766 222.329 704.958 222.127C705.15 221.924 705.4 221.823 705.71 221.823H707.166L706.91 224.959C708.04 225.14 709.016 225.465 709.838 225.935C710.659 226.393 711.368 226.911 711.966 227.487L711.006 228.943C710.867 229.156 710.723 229.316 710.574 229.423C710.424 229.529 710.243 229.583 710.03 229.583C709.87 229.583 709.678 229.535 709.454 229.439C709.23 229.332 708.979 229.209 708.702 229.071C708.424 228.921 708.11 228.772 707.758 228.623C707.416 228.473 707.038 228.351 706.622 228.255L706.062 234.879ZM731.792 225.039V226.751C731.792 227.263 731.739 227.679 731.632 227.999C731.526 228.308 731.419 228.569 731.312 228.783L722.544 246.831C722.363 247.204 722.107 247.524 721.776 247.791C721.446 248.047 721.003 248.175 720.448 248.175H717.584L726.528 230.495C726.731 230.132 726.928 229.801 727.12 229.503C727.323 229.193 727.547 228.9 727.792 228.623H716.72C716.475 228.623 716.262 228.532 716.08 228.351C715.899 228.169 715.808 227.956 715.808 227.711V225.039H731.792ZM738.803 231.983C738.803 233.273 739.133 234.26 739.795 234.943C740.467 235.615 741.416 235.951 742.643 235.951C743.283 235.951 743.853 235.849 744.355 235.647C744.856 235.444 745.277 235.167 745.619 234.815C745.96 234.463 746.216 234.047 746.387 233.567C746.568 233.087 746.659 232.569 746.659 232.015C746.659 231.385 746.563 230.825 746.371 230.335C746.179 229.833 745.907 229.412 745.555 229.071C745.203 228.729 744.781 228.468 744.291 228.287C743.811 228.105 743.283 228.015 742.707 228.015C742.109 228.015 741.571 228.116 741.091 228.319C740.611 228.511 740.2 228.783 739.859 229.135C739.517 229.487 739.256 229.908 739.075 230.399C738.893 230.879 738.803 231.407 738.803 231.983ZM744.051 239.199C744.232 238.975 744.403 238.756 744.563 238.543C744.723 238.329 744.877 238.116 745.027 237.903C744.493 238.244 743.907 238.505 743.267 238.687C742.627 238.857 741.955 238.943 741.251 238.943C740.451 238.943 739.667 238.804 738.899 238.527C738.131 238.249 737.448 237.833 736.851 237.279C736.253 236.713 735.768 236.02 735.395 235.199C735.032 234.367 734.851 233.396 734.851 232.287C734.851 231.252 735.043 230.281 735.427 229.375C735.811 228.468 736.349 227.673 737.043 226.991C737.736 226.308 738.568 225.769 739.539 225.375C740.509 224.98 741.581 224.783 742.755 224.783C743.939 224.783 745 224.969 745.939 225.343C746.888 225.716 747.693 226.239 748.355 226.911C749.027 227.583 749.539 228.388 749.891 229.327C750.253 230.265 750.435 231.295 750.435 232.415C750.435 233.129 750.371 233.807 750.243 234.447C750.125 235.087 749.955 235.705 749.731 236.303C749.507 236.889 749.235 237.465 748.915 238.031C748.595 238.596 748.237 239.156 747.843 239.711L742.547 247.263C742.365 247.519 742.093 247.737 741.731 247.919C741.368 248.089 740.957 248.175 740.499 248.175H736.867L744.051 239.199Z" fill="#252E4B"/>
<path d="M762.245 248.364C762.167 248.574 762.044 248.73 761.876 248.832C761.714 248.934 761.546 248.985 761.372 248.985H760.697L766.106 235.512C766.178 235.32 766.286 235.173 766.43 235.071C766.58 234.969 766.751 234.918 766.943 234.918H767.627L762.245 248.364ZM777.754 246.951V248.175H770.842V246.951H773.605V238.158C773.605 237.894 773.614 237.627 773.632 237.357L771.337 239.328C771.259 239.394 771.181 239.436 771.103 239.454C771.025 239.466 770.953 239.466 770.887 239.454C770.821 239.442 770.758 239.418 770.698 239.382C770.644 239.346 770.602 239.307 770.572 239.265L770.068 238.572L773.911 235.251H775.216V246.951H777.754ZM788.277 246.654C788.451 246.654 788.589 246.705 788.691 246.807C788.793 246.909 788.844 247.041 788.844 247.203V248.175H780.24V247.626C780.24 247.512 780.264 247.395 780.312 247.275C780.36 247.155 780.435 247.044 780.537 246.942L784.668 242.793C785.01 242.445 785.322 242.112 785.604 241.794C785.886 241.47 786.126 241.146 786.324 240.822C786.522 240.498 786.675 240.171 786.783 239.841C786.891 239.505 786.945 239.148 786.945 238.77C786.945 238.392 786.885 238.062 786.765 237.78C786.645 237.492 786.48 237.255 786.27 237.069C786.066 236.883 785.823 236.745 785.541 236.655C785.259 236.559 784.956 236.511 784.632 236.511C784.302 236.511 783.999 236.559 783.723 236.655C783.447 236.751 783.201 236.886 782.985 237.06C782.775 237.228 782.598 237.429 782.454 237.663C782.31 237.897 782.208 238.155 782.148 238.437C782.076 238.647 781.977 238.788 781.851 238.86C781.731 238.926 781.56 238.944 781.338 238.914L780.501 238.77C780.585 238.182 780.747 237.663 780.987 237.213C781.233 236.757 781.539 236.376 781.905 236.07C782.277 235.764 782.7 235.533 783.174 235.377C783.648 235.215 784.161 235.134 784.713 235.134C785.259 235.134 785.769 235.215 786.243 235.377C786.717 235.539 787.128 235.776 787.476 236.088C787.824 236.394 788.097 236.769 788.295 237.213C788.493 237.657 788.592 238.161 788.592 238.725C788.592 239.205 788.52 239.652 788.376 240.066C788.232 240.474 788.037 240.864 787.791 241.236C787.545 241.608 787.26 241.971 786.936 242.325C786.618 242.679 786.279 243.036 785.919 243.396L782.517 246.87C782.757 246.804 783 246.753 783.246 246.717C783.492 246.675 783.729 246.654 783.957 246.654H788.277ZM810.227 235.278V248.175H808.697V238.698C808.697 238.572 808.7 238.437 808.706 238.293C808.718 238.149 808.73 238.002 808.742 237.852L804.314 245.916C804.176 246.186 803.966 246.321 803.684 246.321H803.432C803.15 246.321 802.94 246.186 802.802 245.916L798.284 237.816C798.32 238.134 798.338 238.428 798.338 238.698V248.175H796.808V235.278H798.095C798.251 235.278 798.371 235.293 798.455 235.323C798.539 235.353 798.62 235.437 798.698 235.575L803.153 243.513C803.225 243.657 803.294 243.807 803.36 243.963C803.432 244.119 803.498 244.278 803.558 244.44C803.618 244.278 803.681 244.119 803.747 243.963C803.813 243.801 803.885 243.648 803.963 243.504L808.337 235.575C808.409 235.437 808.487 235.353 808.571 235.323C808.661 235.293 808.784 235.278 808.94 235.278H810.227ZM817.068 238.914C817.734 238.914 818.334 239.025 818.868 239.247C819.402 239.469 819.858 239.784 820.236 240.192C820.614 240.6 820.902 241.095 821.1 241.677C821.304 242.253 821.406 242.898 821.406 243.612C821.406 244.332 821.304 244.98 821.1 245.556C820.902 246.132 820.614 246.624 820.236 247.032C819.858 247.44 819.402 247.755 818.868 247.977C818.334 248.193 817.734 248.301 817.068 248.301C816.396 248.301 815.79 248.193 815.25 247.977C814.716 247.755 814.26 247.44 813.882 247.032C813.504 246.624 813.213 246.132 813.009 245.556C812.811 244.98 812.712 244.332 812.712 243.612C812.712 242.898 812.811 242.253 813.009 241.677C813.213 241.095 813.504 240.6 813.882 240.192C814.26 239.784 814.716 239.469 815.25 239.247C815.79 239.025 816.396 238.914 817.068 238.914ZM817.068 247.05C817.968 247.05 818.64 246.75 819.084 246.15C819.528 245.544 819.75 244.701 819.75 243.621C819.75 242.535 819.528 241.689 819.084 241.083C818.64 240.477 817.968 240.174 817.068 240.174C816.612 240.174 816.213 240.252 815.871 240.408C815.535 240.564 815.253 240.789 815.025 241.083C814.803 241.377 814.635 241.74 814.521 242.172C814.413 242.598 814.359 243.081 814.359 243.621C814.359 244.701 814.581 245.544 815.025 246.15C815.475 246.75 816.156 247.05 817.068 247.05ZM825.31 240.381C825.508 240.159 825.718 239.958 825.94 239.778C826.162 239.598 826.396 239.445 826.642 239.319C826.894 239.187 827.158 239.088 827.434 239.022C827.716 238.95 828.019 238.914 828.343 238.914C828.841 238.914 829.279 238.998 829.657 239.166C830.041 239.328 830.359 239.562 830.611 239.868C830.869 240.168 831.064 240.531 831.196 240.957C831.328 241.383 831.394 241.854 831.394 242.37V248.175H829.783V242.37C829.783 241.68 829.624 241.146 829.306 240.768C828.994 240.384 828.517 240.192 827.875 240.192C827.401 240.192 826.957 240.306 826.543 240.534C826.135 240.762 825.757 241.071 825.409 241.461V248.175H823.798V239.058H824.761C824.989 239.058 825.13 239.169 825.184 239.391L825.31 240.381ZM836.871 248.319C836.151 248.319 835.596 248.118 835.206 247.716C834.822 247.314 834.63 246.735 834.63 245.979V240.399H833.532C833.436 240.399 833.355 240.372 833.289 240.318C833.223 240.258 833.19 240.168 833.19 240.048V239.409L834.684 239.22L835.053 236.403C835.071 236.313 835.11 236.241 835.17 236.187C835.236 236.127 835.32 236.097 835.422 236.097H836.232V239.238H838.869V240.399H836.232V245.871C836.232 246.255 836.325 246.54 836.511 246.726C836.697 246.912 836.937 247.005 837.231 247.005C837.399 247.005 837.543 246.984 837.663 246.942C837.789 246.894 837.897 246.843 837.987 246.789C838.077 246.735 838.152 246.687 838.212 246.645C838.278 246.597 838.335 246.573 838.383 246.573C838.467 246.573 838.542 246.624 838.608 246.726L839.076 247.491C838.8 247.749 838.467 247.953 838.077 248.103C837.687 248.247 837.285 248.319 836.871 248.319ZM842.494 240.273C842.884 239.859 843.316 239.529 843.79 239.283C844.264 239.037 844.81 238.914 845.428 238.914C845.926 238.914 846.364 238.998 846.742 239.166C847.126 239.328 847.444 239.562 847.696 239.868C847.954 240.168 848.149 240.531 848.281 240.957C848.413 241.383 848.479 241.854 848.479 242.37V248.175H846.868V242.37C846.868 241.68 846.709 241.146 846.391 240.768C846.079 240.384 845.602 240.192 844.96 240.192C844.486 240.192 844.042 240.306 843.628 240.534C843.22 240.762 842.842 241.071 842.494 241.461V248.175H840.883V234.918H842.494V240.273ZM856.591 240.561C856.519 240.693 856.408 240.759 856.258 240.759C856.168 240.759 856.066 240.726 855.952 240.66C855.838 240.594 855.697 240.522 855.529 240.444C855.367 240.36 855.172 240.285 854.944 240.219C854.716 240.147 854.446 240.111 854.134 240.111C853.864 240.111 853.621 240.147 853.405 240.219C853.189 240.285 853.003 240.378 852.847 240.498C852.697 240.618 852.58 240.759 852.496 240.921C852.418 241.077 852.379 241.248 852.379 241.434C852.379 241.668 852.445 241.863 852.577 242.019C852.715 242.175 852.895 242.31 853.117 242.424C853.339 242.538 853.591 242.64 853.873 242.73C854.155 242.814 854.443 242.907 854.737 243.009C855.037 243.105 855.328 243.213 855.61 243.333C855.892 243.453 856.144 243.603 856.366 243.783C856.588 243.963 856.765 244.185 856.897 244.449C857.035 244.707 857.104 245.019 857.104 245.385C857.104 245.805 857.029 246.195 856.879 246.555C856.729 246.909 856.507 247.218 856.213 247.482C855.919 247.74 855.559 247.944 855.133 248.094C854.707 248.244 854.215 248.319 853.657 248.319C853.021 248.319 852.445 248.217 851.929 248.013C851.413 247.803 850.975 247.536 850.615 247.212L850.993 246.6C851.041 246.522 851.098 246.462 851.164 246.42C851.23 246.378 851.314 246.357 851.416 246.357C851.524 246.357 851.638 246.399 851.758 246.483C851.878 246.567 852.022 246.66 852.19 246.762C852.364 246.864 852.574 246.957 852.82 247.041C853.066 247.125 853.372 247.167 853.738 247.167C854.05 247.167 854.323 247.128 854.557 247.05C854.791 246.966 854.986 246.855 855.142 246.717C855.298 246.579 855.412 246.42 855.484 246.24C855.562 246.06 855.601 245.868 855.601 245.664C855.601 245.412 855.532 245.205 855.394 245.043C855.262 244.875 855.085 244.734 854.863 244.62C854.641 244.5 854.386 244.398 854.098 244.314C853.816 244.224 853.525 244.131 853.225 244.035C852.931 243.939 852.64 243.831 852.352 243.711C852.07 243.585 851.818 243.429 851.596 243.243C851.374 243.057 851.194 242.829 851.056 242.559C850.924 242.283 850.858 241.95 850.858 241.56C850.858 241.212 850.93 240.879 851.074 240.561C851.218 240.237 851.428 239.955 851.704 239.715C851.98 239.469 852.319 239.274 852.721 239.13C853.123 238.986 853.582 238.914 854.098 238.914C854.698 238.914 855.235 239.01 855.709 239.202C856.189 239.388 856.603 239.646 856.951 239.976L856.591 240.561Z" fill="#808490"/>
</g>
</g>
<g filter="url(#filter1_d_1419_2531)">
<rect x="73.1686" y="207.187" width="297" height="386" rx="10" transform="rotate(-9.53 73.1686 207.187)" fill="white"/>
</g>
<rect x="116.834" y="295.148" width="70" height="16" rx="6" transform="rotate(-9.53 116.834 295.148)" fill="#F3A24E"/>
<rect x="152.438" y="510.245" width="241" height="46" rx="6" transform="rotate(-9.53 152.438 510.245)" fill="#648079"/>
<rect x="129.582" y="369.085" width="181" height="8" rx="4" transform="rotate(-9.53 129.582 369.085)" fill="#F1F1F1"/>
<rect x="139.516" y="428.257" width="139" height="8" rx="4" transform="rotate(-9.53 139.516 428.257)" fill="#F1F1F1"/>
<rect x="144.325" y="455.921" width="127" height="8" rx="4" transform="rotate(-9.53 144.325 455.921)" fill="#F1F1F1"/>
<rect x="95.8497" y="343.314" width="297" height="1" rx="0.5" transform="rotate(-9.53 95.8497 343.314)" fill="#F1F1F1"/>
<rect x="134.549" y="398.671" width="106" height="8" rx="4" transform="rotate(-9.53 134.549 398.671)" fill="#F1F1F1"/>
<path d="M115.073 241.008L116.207 247.762L124.759 246.326L125.328 249.718L116.776 251.154L118.336 260.448L114.076 261.163L110.246 238.347L124.636 235.931L125.203 239.307L115.073 241.008ZM132.133 244.374C132.476 243.321 132.948 242.463 133.551 241.8C134.151 241.126 134.925 240.709 135.872 240.55C136.619 240.425 137.246 240.487 137.753 240.737L137.99 243.699C137.97 243.897 137.914 244.047 137.823 244.149C137.74 244.238 137.615 244.297 137.447 244.326C137.289 244.352 137.048 244.365 136.723 244.366C136.409 244.364 136.105 244.389 135.811 244.438C135.379 244.51 135.006 244.638 134.691 244.821C134.375 245.003 134.101 245.239 133.868 245.527C133.644 245.802 133.455 246.126 133.301 246.498C133.158 246.868 133.033 247.284 132.926 247.745L134.601 257.718L130.703 258.372L127.985 242.182L130.273 241.798C130.673 241.731 130.964 241.758 131.147 241.879C131.327 241.989 131.475 242.224 131.589 242.583L132.133 244.374ZM151.403 244.659C151.318 244.155 151.165 243.693 150.944 243.276C150.731 242.847 150.455 242.488 150.114 242.199C149.774 241.91 149.366 241.708 148.893 241.593C148.428 241.465 147.906 241.45 147.328 241.547C146.202 241.736 145.367 242.206 144.823 242.957C144.289 243.707 144.031 244.686 144.05 245.894L151.403 244.659ZM144.366 248.258C144.569 249.079 144.837 249.775 145.171 250.346C145.503 250.907 145.892 251.355 146.338 251.691C146.782 252.017 147.278 252.236 147.827 252.35C148.385 252.451 148.979 252.448 149.61 252.342C150.242 252.236 150.771 252.072 151.199 251.849C151.637 251.624 152.009 251.393 152.316 251.158C152.633 250.921 152.905 250.708 153.133 250.518C153.371 250.326 153.611 250.21 153.853 250.17C154.179 250.115 154.442 250.195 154.64 250.411L155.999 251.643C155.652 252.22 155.24 252.728 154.762 253.165C154.282 253.591 153.765 253.959 153.211 254.269C152.666 254.566 152.096 254.808 151.5 254.994C150.914 255.179 150.337 255.319 149.769 255.414C148.644 255.603 147.566 255.595 146.537 255.389C145.505 255.173 144.571 254.762 143.734 254.156C142.895 253.54 142.18 252.73 141.59 251.726C140.998 250.711 140.582 249.494 140.344 248.074C140.158 246.969 140.163 245.903 140.358 244.875C140.552 243.837 140.92 242.904 141.463 242.078C142.014 241.239 142.733 240.529 143.62 239.947C144.517 239.364 145.57 238.971 146.78 238.768C147.8 238.596 148.769 238.601 149.687 238.783C150.604 238.964 151.426 239.318 152.152 239.845C152.877 240.361 153.49 241.048 153.991 241.905C154.5 242.75 154.853 243.756 155.049 244.923C155.148 245.513 155.152 245.923 155.061 246.154C154.969 246.376 154.743 246.516 154.386 246.576L144.366 248.258ZM168.892 241.723C168.807 241.218 168.654 240.757 168.433 240.34C168.22 239.911 167.944 239.552 167.603 239.263C167.263 238.974 166.855 238.772 166.382 238.657C165.917 238.529 165.395 238.514 164.817 238.611C163.691 238.8 162.856 239.27 162.312 240.021C161.778 240.771 161.52 241.75 161.539 242.958L168.892 241.723ZM161.855 245.322C162.058 246.143 162.326 246.838 162.66 247.41C162.992 247.97 163.381 248.419 163.827 248.755C164.271 249.081 164.767 249.3 165.316 249.414C165.874 249.515 166.468 249.512 167.099 249.406C167.731 249.3 168.26 249.136 168.688 248.912C169.126 248.687 169.498 248.457 169.805 248.222C170.122 247.985 170.394 247.771 170.622 247.582C170.86 247.39 171.1 247.274 171.342 247.234C171.668 247.179 171.931 247.259 172.129 247.475L173.488 248.707C173.141 249.284 172.729 249.791 172.251 250.229C171.771 250.655 171.254 251.023 170.7 251.333C170.155 251.63 169.585 251.871 168.989 252.058C168.403 252.243 167.826 252.383 167.258 252.478C166.133 252.667 165.055 252.659 164.026 252.453C162.994 252.237 162.06 251.826 161.223 251.22C160.384 250.604 159.669 249.794 159.079 248.79C158.487 247.775 158.071 246.558 157.833 245.138C157.647 244.033 157.652 242.967 157.847 241.939C158.041 240.901 158.409 239.968 158.952 239.142C159.503 238.303 160.222 237.593 161.109 237.011C162.006 236.428 163.059 236.035 164.269 235.832C165.289 235.66 166.258 235.665 167.176 235.846C168.093 236.028 168.915 236.382 169.641 236.909C170.366 237.425 170.979 238.112 171.48 238.969C171.989 239.814 172.342 240.82 172.538 241.987C172.637 242.576 172.641 242.987 172.55 243.218C172.458 243.439 172.232 243.58 171.875 243.64L161.855 245.322Z" fill="#252E4B"/>
<path d="M185.117 249.428C185.075 249.648 184.98 249.823 184.831 249.951C184.688 250.078 184.531 250.157 184.359 250.185L183.693 250.297L186.797 236.115C186.836 235.913 186.918 235.75 187.044 235.626C187.175 235.501 187.335 235.422 187.524 235.39L188.199 235.277L185.117 249.428ZM200.179 245.467L200.382 246.674L193.565 247.819L193.362 246.611L196.087 246.154L194.631 237.482C194.588 237.222 194.552 236.957 194.525 236.688L192.588 239.012C192.522 239.09 192.452 239.144 192.378 239.175C192.303 239.199 192.232 239.211 192.165 239.21C192.098 239.21 192.032 239.196 191.967 239.171C191.908 239.144 191.86 239.113 191.823 239.076L191.212 238.476L194.452 234.565L195.739 234.349L197.676 245.887L200.179 245.467ZM219.618 230.367L221.753 243.086L220.244 243.34L218.675 233.993C218.655 233.869 218.635 233.736 218.617 233.592C218.605 233.448 218.593 233.302 218.58 233.152L215.548 241.837C215.457 242.127 215.272 242.294 214.994 242.341L214.745 242.383C214.467 242.43 214.238 242.331 214.057 242.088L208.26 234.848C208.348 235.155 208.415 235.442 208.459 235.708L210.028 245.055L208.519 245.308L206.384 232.589L207.653 232.376C207.807 232.35 207.928 232.345 208.016 232.361C208.104 232.376 208.198 232.446 208.297 232.569L214.005 239.66C214.1 239.79 214.193 239.926 214.284 240.069C214.381 240.211 214.472 240.357 214.558 240.507C214.59 240.337 214.626 240.17 214.665 240.005C214.704 239.835 214.749 239.672 214.802 239.517L217.803 230.973C217.851 230.825 217.914 230.729 217.992 230.686C218.076 230.641 218.195 230.606 218.349 230.58L219.618 230.367ZM226.967 232.82C227.624 232.71 228.234 232.72 228.797 232.851C229.361 232.981 229.863 233.216 230.303 233.556C230.743 233.896 231.109 234.337 231.401 234.878C231.697 235.412 231.905 236.031 232.023 236.735C232.142 237.445 232.149 238.101 232.043 238.703C231.943 239.304 231.741 239.837 231.435 240.302C231.13 240.767 230.733 241.153 230.243 241.46C229.752 241.762 229.178 241.968 228.521 242.078C227.859 242.189 227.243 242.183 226.675 242.059C226.111 241.929 225.609 241.694 225.169 241.354C224.729 241.014 224.36 240.577 224.064 240.043C223.773 239.507 223.568 238.885 223.449 238.175C223.331 237.471 223.322 236.818 223.422 236.217C223.526 235.61 223.731 235.073 224.037 234.608C224.342 234.143 224.739 233.757 225.229 233.45C225.725 233.141 226.304 232.932 226.967 232.82ZM228.314 240.844C229.202 240.695 229.815 240.288 230.153 239.623C230.491 238.952 230.57 238.083 230.391 237.018C230.212 235.947 229.853 235.15 229.314 234.626C228.776 234.102 228.063 233.914 227.176 234.063C226.726 234.138 226.345 234.281 226.034 234.492C225.728 234.701 225.488 234.97 225.311 235.298C225.141 235.624 225.036 236.01 224.995 236.455C224.959 236.893 224.985 237.378 225.075 237.911C225.254 238.976 225.612 239.771 226.15 240.295C226.693 240.812 227.415 240.995 228.314 240.844ZM235.338 232.903C235.497 232.651 235.671 232.418 235.86 232.204C236.049 231.989 236.254 231.8 236.476 231.635C236.703 231.463 236.947 231.321 237.208 231.211C237.474 231.093 237.767 231.007 238.086 230.954C238.578 230.871 239.023 230.882 239.424 230.985C239.83 231.081 240.182 231.259 240.481 231.519C240.785 231.772 241.038 232.098 241.238 232.496C241.439 232.894 241.582 233.348 241.668 233.857L242.629 239.582L241.04 239.848L240.079 234.124C239.965 233.443 239.719 232.943 239.343 232.623C238.972 232.296 238.47 232.185 237.836 232.292C237.369 232.37 236.95 232.556 236.579 232.849C236.215 233.142 235.893 233.509 235.615 233.951L236.726 240.573L235.137 240.839L233.628 231.848L234.578 231.689C234.803 231.651 234.96 231.737 235.05 231.947L235.338 232.903ZM248.054 238.817C247.344 238.936 246.763 238.83 246.312 238.498C245.867 238.165 245.582 237.626 245.456 236.88L244.533 231.377L243.45 231.559C243.355 231.575 243.271 231.562 243.197 231.519C243.122 231.471 243.074 231.388 243.054 231.27L242.949 230.639L244.391 230.206L244.288 227.366C244.291 227.275 244.318 227.197 244.368 227.134C244.423 227.064 244.501 227.02 244.601 227.004L245.4 226.869L245.92 229.967L248.521 229.53L248.713 230.675L246.112 231.112L247.018 236.509C247.082 236.887 247.221 237.153 247.435 237.306C247.649 237.458 247.901 237.51 248.191 237.461C248.357 237.434 248.496 237.389 248.607 237.328C248.723 237.26 248.821 237.191 248.901 237.123C248.981 237.055 249.047 236.995 249.099 236.944C249.156 236.886 249.209 236.853 249.256 236.845C249.339 236.831 249.421 236.869 249.503 236.958L250.091 237.635C249.862 237.935 249.567 238.192 249.208 238.404C248.847 238.611 248.462 238.748 248.054 238.817ZM252.267 229.951C252.583 229.478 252.955 229.081 253.382 228.76C253.808 228.439 254.326 228.227 254.936 228.125C255.427 228.043 255.873 228.053 256.273 228.156C256.679 228.252 257.031 228.43 257.331 228.69C257.635 228.943 257.887 229.269 258.088 229.667C258.288 230.066 258.432 230.519 258.517 231.028L259.478 236.753L257.889 237.02L256.928 231.295C256.814 230.614 256.569 230.114 256.193 229.794C255.821 229.467 255.319 229.357 254.686 229.463C254.218 229.541 253.799 229.727 253.429 230.021C253.064 230.313 252.743 230.68 252.464 231.123L253.576 237.744L251.987 238.011L249.792 224.937L251.381 224.67L252.267 229.951Z" fill="#808490"/>
<defs>
<filter id="filter0_d_1419_2531" x="111" y="0" width="794" height="650" filterUnits="userSpaceOnUse" color-interpolation-filters="sRGB">
<feFlood flood-opacity="0" result="BackgroundImageFix"/>
<feColorMatrix in="SourceAlpha" type="matrix" values="0 0 0 0 0 0 0 0 0 0 0 0 0 0 0 0 0 0 127 0" result="hardAlpha"/>
<feOffset dy="4"/>
<feGaussianBlur stdDeviation="22"/>
<feComposite in2="hardAlpha" operator="out"/>
<feColorMatrix type="matrix" values="0 0 0 0 0.441667 0 0 0 0 0.4615 0 0 0 0 0.5 0 0 0 0.08 0"/>
<feBlend mode="normal" in2="BackgroundImageFix" result="effect1_dropShadow_1419_2531"/>
<feBlend mode="normal" in="SourceGraphic" in2="effect1_dropShadow_1419_2531" result="shape"/>
</filter>
<filter id="filter1_d_1419_2531" x="0.684692" y="89.5303" width="501.777" height="574.813" filterUnits="userSpaceOnUse" color-interpolation-filters="sRGB">
<feFlood flood-opacity="0" result="BackgroundImageFix"/>
<feColorMatrix in="SourceAlpha" type="matrix" values="0 0 0 0 0 0 0 0 0 0 0 0 0 0 0 0 0 0 127 0" result="hardAlpha"/>
<feOffset dy="4"/>
<feGaussianBlur stdDeviation="37"/>
<feComposite in2="hardAlpha" operator="out"/>
<feColorMatrix type="matrix" values="0 0 0 0 0.174167 0 0 0 0 0.1957 0 0 0 0 0.2375 0 0 0 0.12 0"/>
<feBlend mode="normal" in2="BackgroundImageFix" result="effect1_dropShadow_1419_2531"/>
<feBlend mode="normal" in="SourceGraphic" in2="effect1_dropShadow_1419_2531" result="shape"/>
</filter>
<clipPath id="clip0_1419_2531">
<rect width="190" height="315" fill="white" transform="translate(671 191)"/>
</clipPath>
</defs>
</svg>
