<svg width="29" height="29" viewBox="0 0 29 29" fill="#ffffff" xmlns="http://www.w3.org/2000/svg">
<path d="M4.05139 10.8151C4.83862 7.45905 7.45905 4.83862 10.8151 4.05139C13.2388 3.48287 15.7612 3.48287 18.1849 4.05139C21.541 4.83862 24.1614 7.45905 24.9486 10.8151C25.5171 13.2388 25.5171 15.7612 24.9486 18.1849C24.1614 21.5409 21.541 24.1614 18.1849 24.9486C15.7612 25.5171 13.2388 25.5171 10.8151 24.9486C7.45905 24.1614 4.83862 21.541 4.05139 18.1849C3.48287 15.7612 3.48287 13.2388 4.05139 10.8151Z" stroke="#252E4B" stroke-width="2"/>
<rect x="10.875" y="10.875" width="7.25" height="7.25" rx="3.625" stroke="#252E4B" stroke-width="2"/>
<ellipse cx="19.3333" cy="8.45833" rx="1.20833" ry="1.20833" fill="#252E4B"/>
</svg>
