<svg width="121" height="84" viewBox="0 0 121 84" fill="none" xmlns="http://www.w3.org/2000/svg">
<path d="M12.4652 82.879H10.7221C10.6785 82.879 10.635 82.704 10.4607 82.3102L9.63267 80.2537H3.88041L2.83454 82.879H1.13501L5.31848 72.5088L6.0593 70.7148H7.54094C7.54094 70.7148 7.80241 71.3274 8.28176 72.5088L12.4652 82.879ZM8.97901 78.6347L6.75654 73.1652C6.75654 73.1652 6.4515 73.909 5.84141 75.3967L4.53408 78.6347H8.97901Z" fill="#ffffff"/>
<path d="M26.323 70.7148V77.9346C26.323 78.8972 26.2358 79.5973 26.0615 80.0349C25.7129 80.9975 25.1899 81.7414 24.4055 82.2227C23.7519 82.6602 22.9239 82.879 21.9652 82.879H21.1808C19.917 82.879 18.9147 82.4852 18.1303 81.7414C17.7817 81.3913 17.5202 81.085 17.3459 80.735C16.9973 80.0349 16.823 79.2473 16.823 78.4597V70.7586L16.8666 70.7148H18.4354V70.7586V78.1534C18.4354 79.0285 18.5661 79.6848 18.8712 80.1224C19.1326 80.6037 19.612 80.9538 20.2656 81.1725C20.5271 81.2163 20.745 81.26 20.9629 81.26H22.1395C23.0982 81.26 23.7954 80.8225 24.3184 79.9911C24.5363 79.5098 24.667 78.9847 24.667 78.3721V70.7586L24.7106 70.7148H26.323Z" fill="#ffffff"/>
<path d="M38.8296 79.3364C38.8296 80.0802 38.6117 80.7803 38.1759 81.3929C38.0888 81.5242 37.958 81.6554 37.7837 81.8742C37.5223 82.093 37.3044 82.268 37.1736 82.3555C36.9993 82.4868 36.825 82.5743 36.6071 82.6618C36.0406 82.9244 35.4305 83.0119 34.8204 83.0119C33.8617 83.0119 32.9902 82.7493 32.2058 82.1805C32.075 82.0492 31.9007 81.9617 31.77 81.7867C31.5521 81.5679 31.3778 81.3929 31.2906 81.2616C31.1163 81.0428 30.9856 80.8241 30.8984 80.649C30.8113 80.474 30.7241 80.3427 30.7241 80.299L32.1622 79.6427C32.2493 79.8614 32.3801 80.0365 32.5108 80.2552C32.598 80.3427 32.6851 80.474 32.8594 80.649C33.0773 80.8241 33.2516 80.9553 33.3824 81.0428C33.8181 81.3054 34.2975 81.4366 34.7769 81.4366H34.8204C35.2998 81.4366 35.7791 81.3054 36.2149 81.0866C36.3457 80.9991 36.4764 80.9116 36.6071 80.8241C36.7379 80.6928 36.8686 80.5178 36.9557 80.4303C37.1301 80.124 37.2172 79.7739 37.2172 79.4239C37.2172 78.855 36.9993 78.4175 36.52 78.0674C36.3892 77.9799 36.2585 77.8924 36.1278 77.8487C35.9535 77.7611 35.6484 77.6736 35.2126 77.5861C34.036 77.3236 33.2081 77.061 32.6851 76.7548C31.5085 76.1859 30.942 75.3108 30.942 74.1294C30.942 73.3418 31.2035 72.6417 31.7264 71.9853C31.9007 71.7666 32.075 71.5915 32.2493 71.4603C32.4672 71.2852 32.6851 71.154 32.8594 71.0665C33.0337 70.979 33.2516 70.8914 33.5567 70.8039C33.9925 70.6727 34.4282 70.6289 34.864 70.6289H34.9947C35.6048 70.6289 36.2585 70.7602 36.8686 71.0665C37.0429 71.154 37.2608 71.2852 37.4351 71.4165C37.5223 71.504 37.6966 71.5915 37.8709 71.8103C38.0888 72.0291 38.2195 72.2479 38.3502 72.3791C38.4374 72.5104 38.5245 72.6417 38.5681 72.7292L37.1301 73.4293C37.0865 73.3418 36.9993 73.1668 36.825 72.9917C36.3021 72.4667 35.692 72.1604 34.9512 72.1604C34.2103 72.1604 33.6003 72.3791 33.1645 72.8167C32.9902 72.9917 32.903 73.1668 32.8594 73.2543C32.7287 73.5168 32.6415 73.7793 32.6415 74.0419V74.0856C32.6415 74.4794 32.7723 74.7857 33.0773 74.9608C33.2081 75.0483 33.3388 75.1358 33.4259 75.2233C33.731 75.3983 34.1232 75.5296 34.6897 75.7046C35.1255 75.8359 35.6048 75.9671 36.2149 76.0984C36.5635 76.1859 36.825 76.2734 37.0429 76.4047C37.2608 76.4922 37.4787 76.6672 37.6966 76.8423C37.9145 77.0173 38.0888 77.1923 38.2195 77.4111C38.6117 77.9799 38.8296 78.6363 38.8296 79.3364Z" fill="#ffffff"/>
<path d="M51.2494 70.7148V72.2901H48.0246V82.879H46.4123V72.2901H43.1875V70.7148H51.2494Z" fill="#ffffff"/>
<path d="M65.848 82.8814H63.6255L59.8342 77.6744H57.7425V82.8814H55.9558V70.8047H60.8365C61.3159 70.8047 61.7517 70.8922 62.1874 71.0672C62.6232 71.2423 62.9718 71.5048 63.2769 71.8111C63.5819 72.1174 63.8434 72.4674 64.0177 72.905C64.192 73.2988 64.2792 73.7801 64.2792 74.2614C64.2792 74.6552 64.2356 75.049 64.1049 75.3991C63.9741 75.7491 63.7998 76.0554 63.5819 76.3617C63.364 76.6242 63.1026 76.8868 62.7975 77.1056C62.4925 77.3243 62.1439 77.4556 61.7952 77.5869L65.848 82.8814ZM61.4902 75.8804C61.7081 75.7929 61.8824 75.6616 62.0567 75.4866C62.231 75.3116 62.3182 75.1365 62.4053 74.9178C62.4925 74.699 62.5361 74.4802 62.5361 74.2177C62.5361 73.9551 62.4925 73.7363 62.4053 73.5176C62.3182 73.2988 62.1874 73.1238 62.0567 72.9487C61.926 72.7737 61.7081 72.6424 61.4902 72.5549C61.2723 72.4674 61.0544 72.4237 60.7929 72.4237H57.6989V76.0554H60.7929C61.0544 76.0117 61.3159 75.9679 61.4902 75.8804Z" fill="#ffffff"/>
<path d="M81.5358 82.879H79.7927C79.7491 82.879 79.7055 82.704 79.5312 82.3102L78.7032 80.2537H72.951L71.9051 82.879H70.2056L74.389 72.5088L75.1298 70.7148H76.6115C76.6115 70.7148 76.873 71.3274 77.3523 72.5088L81.5358 82.879ZM78.0496 78.6347L75.8271 73.1652C75.8271 73.1652 75.522 73.909 74.912 75.3967L73.6046 78.6347H78.0496Z" fill="#ffffff"/>
<path d="M92.779 81.26V82.879H85.9373V70.7148H87.5061V81.26H92.779Z" fill="#ffffff"/>
<path d="M99.7078 70.7148V82.879H99.6643H98.0955V70.7148H99.6643H99.7078Z" fill="#ffffff"/>
<path d="M116.311 82.879H114.568C114.524 82.879 114.481 82.704 114.306 82.3102L113.478 80.2537H107.726L106.68 82.879H104.981L109.164 72.5088L109.905 70.7148H111.387C111.387 70.7148 111.648 71.3274 112.127 72.5088L116.311 82.879ZM112.868 78.6347L110.646 73.1652C110.646 73.1652 110.341 73.909 109.731 75.3967L108.423 78.6347H112.868Z" fill="#ffffff"/>
<path d="M53.9076 29.2346C54.2127 29.0595 54.5613 28.797 54.9099 28.4907C55.215 28.2719 55.6507 27.8344 56.1737 27.2218C56.653 26.6092 57.0017 26.0841 57.3067 25.5591C58.1347 24.0276 58.5269 22.4086 58.5269 20.7459C58.5269 19.477 58.309 18.2081 57.8296 17.0266C57.4374 15.9327 56.7838 14.9264 55.8686 13.8762C55.3893 13.3949 55.0407 13.0886 54.7792 12.8698C52.9925 11.4696 51.0315 10.7695 48.8962 10.7695C46.9788 10.7695 45.1921 11.3384 43.5797 12.4323C43.3182 12.6073 42.8389 13.0011 42.1852 13.6137C41.7494 14.095 41.4008 14.4888 41.1829 14.8388C40.8779 15.2764 40.66 15.6702 40.4421 16.064C39.7013 17.5517 39.3091 19.0394 39.3091 20.5271V20.8334C39.3091 22.1899 39.6141 23.5463 40.2242 24.9465C40.3985 25.3403 40.6164 25.7778 40.8779 26.1717C41.1394 26.5217 41.3572 26.8717 41.6623 27.2218C41.8802 27.5281 42.2724 27.8781 42.7517 28.3157C43.0132 28.5345 43.2747 28.7533 43.6233 28.972C44.6691 29.6284 45.715 30.0659 46.848 30.3285V51.8127C46.848 52.6441 47.0223 53.4317 47.371 54.2193C47.5017 54.4818 47.676 54.7443 47.8503 55.0506L48.199 55.4882C48.504 55.7945 48.7655 56.0133 48.9398 56.1445C50.0292 56.9321 51.2058 57.2822 52.4696 57.2822H52.5131C53.1668 57.2822 53.8641 57.1947 54.7356 56.9759C55.4329 56.7571 55.9558 56.5821 56.2608 56.4508L54.8228 52.8628L54.6485 52.9503C53.6897 53.3004 52.9489 53.4754 52.4696 53.4754C52.1209 53.4754 51.7287 53.3879 51.3801 53.1691C50.8572 52.9066 50.6393 52.4253 50.6393 51.6814V42.0988H55.5636V42.0551V38.2483H50.6393V30.416C51.7723 30.2847 52.8618 29.8909 53.9076 29.2346ZM48.8962 26.828C47.676 26.828 46.543 26.4342 45.4971 25.6466C45.2792 25.5153 44.9306 25.209 44.5384 24.7277C43.6233 23.5463 43.1439 22.2336 43.1439 20.7897C43.1439 19.4332 43.5361 18.2518 44.2769 17.1579C44.3641 16.9391 44.6256 16.6328 45.0613 16.239C46.2379 15.1889 47.5017 14.6638 48.8962 14.6638C49.8113 14.6638 50.7265 14.8826 51.5544 15.3639C51.7723 15.4952 51.9466 15.6265 52.2081 15.8015C52.3824 15.8452 52.6875 16.1515 53.1232 16.6328C54.1691 17.858 54.692 19.2144 54.692 20.7459V20.7897C54.692 21.8398 54.4306 22.8462 53.8641 23.8526C53.6898 24.2026 53.3411 24.6402 52.9053 25.1215C51.7287 26.2592 50.4214 26.828 48.8962 26.828Z" fill="#F3A24D"/>
<path d="M17.9994 24.816V24.8598C17.9994 26.2162 17.4764 27.4852 16.4742 28.6666C16.0384 29.1041 15.7333 29.3667 15.559 29.4979C15.0361 29.8917 14.6003 30.1105 14.2517 30.2855C12.9008 30.8981 11.4627 31.2044 9.93749 31.2044H9.80676C7.80218 31.2044 6.01549 30.6793 4.35954 29.6292C4.01092 29.4104 3.61872 29.0604 3.22652 28.7103C2.83432 28.3165 2.57285 28.054 2.44212 27.8352C2.18065 27.4851 1.96276 27.1351 1.74487 26.7851L5.05678 24.8598L5.23109 25.1223C5.36183 25.3411 5.62329 25.6036 5.92834 25.9099C6.53843 26.4788 7.27925 26.8726 8.15081 27.0914C8.71732 27.2226 9.32741 27.3101 9.89392 27.3101C11.0705 27.3101 12.1164 27.0476 13.0315 26.5225C13.2058 26.435 13.4237 26.26 13.6852 26.0412C14.0338 25.6474 14.2081 25.2098 14.2081 24.816C14.2081 24.0722 13.6416 23.5034 12.5086 23.0658C12.1164 22.9345 11.4627 22.8033 10.4604 22.6282C8.32512 22.2344 6.71274 21.7969 5.66687 21.3156C5.23109 21.1405 4.75174 20.878 4.31596 20.6155C3.31367 19.9591 2.66001 19.1278 2.31138 18.1214C2.13707 17.6838 2.09349 17.2025 2.09349 16.6774V16.5461C2.09349 15.2772 2.57285 14.0958 3.48798 13.0019C3.88018 12.6081 4.18523 12.3018 4.35954 12.2143C4.79532 11.8643 5.2311 11.6017 5.6233 11.4267C6.93063 10.8141 8.41227 10.5078 10.0246 10.5078C12.465 10.5078 14.5132 11.2517 16.2127 12.7831C16.6049 13.1769 16.8664 13.4395 17.0407 13.6582L17.2586 14.0521C17.215 14.0958 16.8664 14.3146 16.1691 14.7521C15.4719 15.146 14.7746 15.6273 13.9902 16.1523C13.7723 15.8461 13.5109 15.6273 13.293 15.4522C12.4214 14.7521 11.332 14.4459 10.0682 14.4459H9.98107C8.58658 14.4459 7.45356 14.7959 6.62558 15.4522C6.14623 15.846 5.92834 16.2836 5.92834 16.7649C5.92834 17.0712 6.05907 17.29 6.32054 17.465C6.58201 17.6838 7.06136 17.9026 7.80218 18.1651C8.80447 18.5152 10.3733 18.8652 12.5086 19.2153C13.2058 19.3903 13.7723 19.5653 14.2953 19.7841C14.7746 19.9591 15.2104 20.2217 15.6898 20.5279C15.9076 20.6592 16.2127 20.9217 16.6049 21.3156C17.52 22.3219 17.9994 23.5034 17.9994 24.816Z" fill="#ffffff"/>
<path d="M37.1738 18.5134V30.065L37.1302 30.1087H33.3825L33.339 30.065V18.4696C33.339 16.8506 32.6417 15.7567 31.2908 15.2317C30.7243 14.9691 29.9835 14.8379 29.1119 14.8379H28.7633C27.1509 14.8379 26.0179 15.1004 25.3206 15.5817C24.4491 16.1068 24.0133 17.1132 24.0133 18.5571V30.1087H20.1785V0.835938H24.0133V12.1687C24.7106 11.7749 25.5821 11.4687 26.6716 11.1186C27.2381 10.9873 27.9353 10.8998 28.8069 10.8998H28.9812C32.4238 10.8998 34.8642 12.2125 36.3458 14.7941C36.9123 15.9318 37.1738 17.1569 37.1738 18.5134Z" fill="#ffffff"/>
<path d="M74.6941 12.0408C74.1276 14.5786 73.8225 15.9351 73.7789 16.0226C72.5152 15.1912 71.3822 14.7537 70.3799 14.7537H70.0748C68.8111 14.7537 67.678 15.235 66.7193 16.1539C65.9785 17.029 65.6299 18.7355 65.6299 21.2296V30.0245L65.5863 30.0683H61.8822L61.8386 30.0245V11.2532L61.8822 11.2094H65.5863L65.6299 11.2532V12.6971C67.068 11.472 68.5932 10.8594 70.1184 10.8594H70.5978C71.9487 10.9031 73.2996 11.2969 74.6941 12.0408Z" fill="#ffffff"/>
<path d="M87.3319 29.3242C87.0268 29.4555 86.5039 29.6305 85.7631 29.8493C84.9351 30.0681 84.1507 30.1556 83.5406 30.1556H83.497C82.2333 30.1556 81.0567 29.7618 79.9672 29.0179C79.7929 28.8867 79.5314 28.6679 79.2264 28.3616L78.8778 27.924C78.6599 27.6615 78.4856 27.3552 78.3984 27.0927C78.0498 26.2613 77.8755 25.4737 77.8755 24.6423V0.882812H81.7103V10.9467H86.6346V14.7972H81.7103V24.4673C81.7103 25.2112 81.9718 25.7362 82.4512 25.955C82.7998 26.13 83.1484 26.2176 83.5406 26.2176C84.0635 26.2176 84.8044 26.0425 85.7631 25.6925L85.9374 25.605L87.3319 29.3242Z" fill="#ffffff"/>
<path d="M43.754 52.0309V52.0746C43.754 53.4311 43.2311 54.7 42.2288 55.8814C41.793 56.319 41.488 56.5815 41.3137 56.7128C40.7907 57.1066 40.355 57.3254 40.0063 57.5004C38.6554 58.113 37.2174 58.4193 35.6921 58.4193H35.5614C33.5568 58.4193 31.7701 57.8942 30.1142 56.844C29.7656 56.6253 29.3734 56.2752 28.9812 55.9252C28.589 55.5314 28.3275 55.2688 28.1968 55.05C27.9353 54.7 27.7174 54.35 27.4995 53.9999L30.8114 52.0746L30.9857 52.3372C31.1165 52.5559 31.3779 52.8185 31.683 53.1248C32.2931 53.6936 33.0339 54.0874 33.9054 54.3062C34.472 54.4375 35.082 54.525 35.6486 54.525C36.8252 54.525 37.871 54.2624 38.7862 53.7374C38.9605 53.6499 39.1784 53.4748 39.4398 53.256C39.7884 52.8622 39.9628 52.4247 39.9628 52.0309C39.9628 51.287 39.3962 50.7182 38.2632 50.2806C37.871 50.1494 37.2174 50.0181 36.2151 49.8431C34.0798 49.4493 32.4674 49.0117 31.4215 48.5304C30.9857 48.3554 30.5064 48.0928 30.0706 47.8303C29.0683 47.174 28.4146 46.3426 28.066 45.3362C27.8917 44.8986 27.8481 44.4173 27.8481 43.8923V43.761C27.8481 42.4921 28.3275 41.3107 29.2426 40.2168C29.6348 39.823 29.9399 39.5167 30.1142 39.4291C30.55 39.0791 30.9857 38.8166 31.3779 38.6415C32.6853 38.029 34.1669 37.7227 35.7793 37.7227C38.2196 37.7227 40.2678 38.4665 41.9673 39.998C42.3595 40.3918 42.621 40.6543 42.7953 40.8731L43.0132 41.2669C42.9696 41.3107 42.621 41.5294 41.9238 41.967C41.2265 42.3608 40.5293 42.8421 39.7449 43.3672C39.527 43.0609 39.2655 42.8421 39.0476 42.6671C38.1761 41.967 37.0866 41.6607 35.8229 41.6607H35.7357C34.3412 41.6607 33.2082 42.0108 32.3802 42.6671C31.9009 43.0609 31.683 43.4985 31.683 43.9798C31.683 44.2861 31.8137 44.5048 32.0752 44.6799C32.3366 44.8986 32.816 45.1174 33.5568 45.38C34.5591 45.73 36.1279 46.0801 38.2632 46.4301C38.9605 46.6051 39.527 46.7802 40.0499 46.9989C40.5293 47.174 40.965 47.4365 41.4444 47.7428C41.6623 47.8741 41.9673 48.1366 42.3595 48.5304C43.2747 49.493 43.754 50.6744 43.754 52.0309Z" fill="#ffffff"/>
<path d="M77.4396 38.2047H73.6919L73.6483 38.2485V40.4363C72.0795 38.7298 70.1621 37.8984 67.9396 37.8984C65.5864 37.8984 63.4511 38.6861 61.5773 40.2613C59.3112 42.4053 58.1782 44.9432 58.1782 47.8748C58.1782 50.2376 58.919 52.3817 60.4443 54.3069C62.4924 56.6698 64.9328 57.8512 67.8525 57.8512C70.2057 57.8512 72.0795 57.0198 73.6048 55.4008V57.3261L73.6483 57.3699H77.396L77.4396 57.3261V38.2047ZM73.6048 47.8748C73.6048 49.6251 72.9947 51.1128 71.7309 52.3817C70.5543 53.4318 69.2906 53.9569 68.0268 53.9569H67.591C66.6759 53.9569 65.7172 53.6506 64.7149 53.038C62.9282 51.6816 62.0131 49.9751 62.0131 47.8748C62.0131 46.5184 62.4488 45.2494 63.3204 44.0243C64.5842 42.5366 66.0658 41.7927 67.6346 41.7927H67.9396C68.8984 41.7927 69.9006 42.099 70.9029 42.7116C72.6896 43.9805 73.6048 45.7308 73.6048 47.8748Z" fill="#ffffff"/>
<path d="M99.882 38.207L95.6114 47.9646L92.0381 56.147L88.3775 64.5919L87.7674 65.9484H83.584L87.3752 57.3722L83.4532 48.4022L79.4877 39.3447L79.0083 38.207H83.4097C83.4097 38.207 83.4968 38.3383 83.584 38.6008L86.4165 45.3393L89.467 52.5153C89.5105 52.4277 89.772 51.7714 90.3385 50.5025L92.9968 44.4641L95.7422 38.207H99.882Z" fill="#ffffff"/>
<path d="M116.311 52.0309V52.0746C116.311 53.4311 115.788 54.7 114.786 55.8814C114.35 56.319 114.045 56.5815 113.871 56.7128C113.348 57.1066 112.912 57.3254 112.563 57.5004C111.212 58.113 109.774 58.4193 108.249 58.4193H108.118C106.114 58.4193 104.327 57.8942 102.671 56.844C102.322 56.6253 101.93 56.2752 101.538 55.9252C101.146 55.5314 100.884 55.2688 100.754 55.05C100.492 54.7 100.274 54.35 100.056 53.9999L103.368 52.0746L103.543 52.3372C103.673 52.5559 103.935 52.8185 104.24 53.1248C104.85 53.6936 105.591 54.0874 106.462 54.3062C107.029 54.4375 107.639 54.525 108.205 54.525C109.382 54.525 110.428 54.2624 111.343 53.7374C111.517 53.6499 111.735 53.4748 111.997 53.256C112.345 52.8622 112.52 52.4247 112.52 52.0309C112.52 51.287 111.953 50.7182 110.82 50.2806C110.428 50.1494 109.774 50.0181 108.772 49.8431C106.637 49.4493 105.024 49.0117 103.978 48.5304C103.543 48.3554 103.063 48.0928 102.627 47.8303C101.625 47.174 100.972 46.3426 100.623 45.3362C100.449 44.8986 100.405 44.4173 100.405 43.8923V43.761C100.405 42.4921 100.884 41.3107 101.8 40.2168C102.192 39.823 102.497 39.5167 102.671 39.4291C103.107 39.0791 103.543 38.8166 103.935 38.6415C105.242 38.029 106.724 37.7227 108.336 37.7227C110.777 37.7227 112.825 38.4665 114.524 39.998C114.916 40.3918 115.178 40.6543 115.352 40.8731L115.57 41.2669C115.527 41.3107 115.178 41.5294 114.481 41.967C113.783 42.3608 113.086 42.8421 112.302 43.3672C112.084 43.0609 111.822 42.8421 111.605 42.6671C110.733 41.967 109.644 41.6607 108.38 41.6607H108.293C106.898 41.6607 105.765 42.0108 104.937 42.6671C104.458 43.0609 104.24 43.4985 104.24 43.9798C104.24 44.2861 104.371 44.5048 104.632 44.6799C104.894 44.8986 105.373 45.1174 106.114 45.38C107.116 45.73 108.685 46.0801 110.82 46.4301C111.517 46.6051 112.084 46.7802 112.607 46.9989C113.086 47.174 113.522 47.4365 114.001 47.7428C114.219 47.8741 114.524 48.1366 114.916 48.5304C115.832 49.493 116.311 50.6744 116.311 52.0309Z" fill="#ffffff"/>
<path d="M117.88 70.5859V70.9797H117.139V72.9488H116.66V70.9797H115.919V70.5859H117.88ZM120.407 72.9488L120.32 71.5486C120.32 71.3736 120.32 71.1548 120.32 70.8922H120.276C120.233 71.111 120.146 71.3735 120.059 71.5923L119.623 72.905H119.143L118.708 71.5486C118.664 71.3736 118.577 71.0673 118.533 70.8922H118.49C118.49 71.111 118.49 71.3298 118.49 71.5486L118.403 72.9488H117.967L118.141 70.5859H118.838L119.231 71.7674C119.274 71.9424 119.318 72.1174 119.405 72.3799C119.449 72.1612 119.536 71.9424 119.579 71.7674L119.971 70.5859H120.669L120.843 72.9488H120.407Z" fill="#ffffff"/>
</svg>
