<svg width="16" height="18" viewBox="0 0 16 18" fill="none" xmlns="http://www.w3.org/2000/svg">
<path d="M1.69001 0.799052L14.825 8.46155C14.9191 8.51666 14.9972 8.59543 15.0515 8.69006C15.1057 8.78468 15.1343 8.89185 15.1343 9.00093C15.1343 9.11 15.1057 9.21717 15.0515 9.3118C14.9972 9.40642 14.9191 9.4852 14.825 9.5403L1.69001 17.2028C1.59484 17.2583 1.48668 17.2877 1.3765 17.288C1.26632 17.2883 1.15802 17.2594 1.06259 17.2043C0.967159 17.1492 0.887984 17.0699 0.833089 16.9744C0.778195 16.8788 0.749532 16.7705 0.750006 16.6603V1.33905C0.749973 1.22908 0.778958 1.12105 0.834032 1.02586C0.889107 0.930675 0.968322 0.851706 1.06368 0.796926C1.15903 0.742147 1.26716 0.713497 1.37713 0.713871C1.4871 0.714244 1.59502 0.743627 1.69001 0.799052Z" fill="white"/>
</svg>
