<svg width="14" height="17" viewBox="0 0 14 17" fill="none" xmlns="http://www.w3.org/2000/svg">
<path d="M11 2.25C11 1.91848 11.1317 1.60054 11.3661 1.36612C11.6005 1.1317 11.9185 1 12.25 1C12.5815 1 12.8995 1.1317 13.1339 1.36612C13.3683 1.60054 13.5 1.91848 13.5 2.25V14.75C13.5 15.0815 13.3683 15.3995 13.1339 15.6339C12.8995 15.8683 12.5815 16 12.25 16C11.9185 16 11.6005 15.8683 11.3661 15.6339C11.1317 15.3995 11 15.0815 11 14.75V2.25ZM1 2.25C1 1.91848 1.1317 1.60054 1.36612 1.36612C1.60054 1.1317 1.91848 1 2.25 1C2.58152 1 2.89946 1.1317 3.13388 1.36612C3.3683 1.60054 3.5 1.91848 3.5 2.25V14.75C3.5 15.0815 3.3683 15.3995 3.13388 15.6339C2.89946 15.8683 2.58152 16 2.25 16C1.91848 16 1.60054 15.8683 1.36612 15.6339C1.1317 15.3995 1 15.0815 1 14.75V2.25Z" fill="white" stroke="white"/>
</svg>
