<svg width="17" height="16" viewBox="0 0 17 16" fill="z" xmlns="http://www.w3.org/2000/svg">
<path fill-rule="evenodd" clip-rule="evenodd" d="M8.19134 0.0707008C8.10873 0.111242 7.99577 0.195987 7.94034 0.258988C7.88487 0.32199 7.21208 1.53837 6.44518 2.96207C5.67827 4.38578 5.03924 5.56234 5.02508 5.57663C5.01092 5.59093 4.22201 5.12499 3.27193 4.54121L1.5445 3.47979H1.26011C1.01444 3.47979 0.954996 3.49432 0.823411 3.58667C0.624457 3.7263 0.494261 4.00411 0.500195 4.27626C0.50425 4.46113 2.04549 11.5297 2.13006 11.8661C2.15102 11.9495 2.22747 12.0874 2.29995 12.1724C2.55816 12.4755 2.06885 12.4545 8.56961 12.4423L14.3931 12.4314L14.5318 12.3318C14.8502 12.1032 14.7808 12.4153 15.6886 9.12865C16.3004 5.56604 16.511 4.26141 16.4996 4.10562C16.4637 3.61706 15.9638 3.26267 15.5266 3.41571C15.4562 3.44032 14.6388 3.94246 13.7102 4.53154C12.7815 5.12065 12.0102 5.59093 11.996 5.57663C11.9818 5.56234 11.3428 4.38578 10.5759 2.96207C9.809 1.53837 9.13621 0.32199 9.08074 0.258988C8.85929 0.00734106 8.48275 -0.0723864 8.19134 0.0707008ZM2.53616 14.4193C2.43315 14.4765 2.32323 14.5855 2.24505 14.708C2.12661 14.8937 2.12022 14.9211 2.13303 15.1911C2.14437 15.4312 2.16461 15.5044 2.2586 15.646C2.32023 15.7388 2.44513 15.8564 2.53616 15.9073L2.70169 16H8.51054H14.3194L14.4849 15.9073C14.576 15.8564 14.7011 15.7384 14.7631 15.6451C14.865 15.4915 14.8757 15.4458 14.8757 15.1637C14.8757 14.8816 14.865 14.8359 14.7631 14.6823C14.7011 14.589 14.576 14.471 14.4849 14.4201L14.3194 14.3274H8.51054H2.70169L2.53616 14.4193Z" fill="#808490"/>
</svg>
