<svg width="62" height="62" viewBox="0 0 62 62" fill="none" xmlns="http://www.w3.org/2000/svg">
<rect opacity="0.15" width="62" height="62" rx="31" fill="white"/>
<rect opacity="0.85" x="3.32144" y="3.32129" width="55.3571" height="55.3571" rx="27.6786" fill="#010101"/>
<g clip-path="url(#clip0_64_1269)">
<path d="M33.2143 27.817C33.2143 27.6334 33.2872 27.4574 33.417 27.3277C33.5467 27.1979 33.7227 27.125 33.9063 27.125C34.0898 27.125 34.2658 27.1979 34.3956 27.3277C34.5253 27.4574 34.5982 27.6334 34.5982 27.817V34.7366C34.5982 34.9201 34.5253 35.0961 34.3956 35.2259C34.2658 35.3557 34.0898 35.4286 33.9063 35.4286C33.7227 35.4286 33.5467 35.3557 33.417 35.2259C33.2872 35.0961 33.2143 34.9201 33.2143 34.7366V27.817ZM27.6786 27.817C27.6786 27.6334 27.7515 27.4574 27.8813 27.3277C28.011 27.1979 28.187 27.125 28.3706 27.125C28.5541 27.125 28.7301 27.1979 28.8598 27.3277C28.9896 27.4574 29.0625 27.6334 29.0625 27.817V34.7366C29.0625 34.9201 28.9896 35.0961 28.8598 35.2259C28.7301 35.3557 28.5541 35.4286 28.3706 35.4286C28.187 35.4286 28.011 35.3557 27.8813 35.2259C27.7515 35.0961 27.6786 34.9201 27.6786 34.7366V27.817Z" fill="white" stroke="white"/>
</g>
<defs>
<clipPath id="clip0_64_1269">
<rect width="16.6071" height="16.6071" fill="white" transform="translate(22.6964 22.6963)"/>
</clipPath>
</defs>
</svg>
