<svg width="122" height="122" viewBox="0 0 122 122" fill="none" xmlns="http://www.w3.org/2000/svg">
<rect opacity="0.15" width="122" height="122" rx="61" fill="white"/>
<rect opacity="0.85" x="16" y="16" width="90" height="90" rx="45" fill="#010101"/>
<g clip-path="url(#clip0_64_1228)">
<path d="M56.69 52.7986L69.825 60.4611C69.9191 60.5162 69.9972 60.5949 70.0515 60.6896C70.1057 60.7842 70.1343 60.8914 70.1343 61.0004C70.1343 61.1095 70.1057 61.2167 70.0515 61.3113C69.9972 61.4059 69.9191 61.4847 69.825 61.5398L56.69 69.2023C56.5948 69.2578 56.4867 69.2872 56.3765 69.2875C56.2663 69.2878 56.158 69.2589 56.0626 69.2038C55.9672 69.1487 55.888 69.0694 55.8331 68.9739C55.7782 68.8783 55.7495 68.77 55.75 68.6598V53.3386C55.75 53.2286 55.779 53.1206 55.834 53.0254C55.8891 52.9302 55.9683 52.8512 56.0637 52.7964C56.159 52.7417 56.2672 52.713 56.3771 52.7134C56.4871 52.7138 56.595 52.7431 56.69 52.7986Z" fill="white"/>
</g>
<defs>
<clipPath id="clip0_64_1228">
<rect width="30" height="30" fill="white" transform="translate(47 46)"/>
</clipPath>
</defs>
</svg>
